<svg xmlns="http://www.w3.org/2000/svg" version="1.1" xmlns:xlink="http://www.w3.org/1999/xlink" xmlns:svgjs="http://svgjs.dev/svgjs" width="1000" height="1000"><g clip-path="url(#SvgjsClipPath1195)"><rect width="1000" height="1000" fill="#f1c3dd"></rect><g transform="matrix(0.8314526665874807,0,0,0.8314526665874807,150,252.51811379023638)"><svg xmlns="http://www.w3.org/2000/svg" version="1.1" xmlns:xlink="http://www.w3.org/1999/xlink" xmlns:svgjs="http://svgjs.dev/svgjs" width="841.9" height="595.3"><svg id="Layer_1" xmlns="http://www.w3.org/2000/svg" version="1.1" viewBox="0 0 841.9 595.3">
  <!-- Generator: Adobe Illustrator 29.3.1, SVG Export Plug-In . SVG Version: 2.1.0 Build 151)  -->
  <defs>
    <style>
      .st0 {
        fill: #e0218a;
      }
    </style>
  <clipPath id="SvgjsClipPath1195"><rect width="1000" height="1000" x="0" y="0" rx="350" ry="350"></rect></clipPath></defs>
  <path class="st0" d="M634.4,315.5c-33.1-7.3-47.3-46.6-84.4-23.1-7.3,4.6-10,15.1-21.9,12.1,6.8-34.3,45.8-63,80.3-54.4,27,6.7,73.2,32.1,96.8,34.1,10.1.9,22.2-4.6,32.9-.2,7.2,4.6-4.7,12.2-7.8,16.9-4.2,6.5-15.6,30.3-19.5,32.3-7.5,3.7-25.6.4-38.9,4.7-48.2,15.5-116.5,78.9-168.5,69.1-19.5-3.7-26.1-15-34-31.5-47.6,37.6-95.8,34-117.2-27.2-23.1,44.7,7.2,96.6-32.3,138.1-25.7,26.9-116.7,71.3-153.6,71.6-63,.6-73.6-68.1-51.4-114.3,12,18.1,29.5,72.4,55.1,75.8,16.1,2.1,82-25,97.6-34.8,15.7-9.8,50-39.9,52.9-58.9,4.4-28-4.5-31.8-12.1-53-18.7-52.7,39.2-55.3,65.5-87.2,9-2,6.2,15.1,7.1,20.1,5.2,27.5,15,53.4,47.4,56.3,34.1,3,34.8-26.1,34-53.2-.8-28.4-4.5-66.8-8.5-95.1-10.1-70.5-28.3-93.1,3.2-166.6,1.7-4.1,2.7-7,6.7-9.6,3.7,0,6.3,16.7,6.8,20.4,9.6,75.8,7.6,179.6,27.6,250.6,13,46,69.5,37.9,104.8,26.3,11.1-3.7,25.5-8.4,31.3-19.1h0Z"></path>
  <path class="st0" d="M669.5,439.7c4.8,5.4-28,30.6-33.2,33.4-16.4,8.7-34.9,6.9-50.5,14-10.3,4.7-18.9,18.3-27.8,25.5-7.5-3.9,4-16.9,7.7-21.7,25.2-31.8,58-21.7,90.2-41.6,1.8-1.2,12.2-11.1,13.5-9.6h0Z"></path>
  <path class="st0" d="M619.9,392c3.3,9.9,9.4,25.2,4.4,35.3-.8,1.5-26.3,18.1-27.9,18.6-15.4,4.4-21-29.5-16.6-37.2,1.5-2.6,33.9-19.5,40.1-16.7h0Z"></path>
</svg></svg></g></g></svg>